<svg width="1280" height="820" viewBox="0 0 1280 820" fill="none" xmlns="http://www.w3.org/2000/svg">
  <rect width="1280" height="820" rx="32" fill="#F3F6FB"/>
  <rect x="48" y="42" width="1184" height="736" rx="28" fill="white"/>
  <rect x="48" y="42" width="1184" height="78" rx="28" fill="#0F172A"/>
  <text x="88" y="91" fill="white" font-family="Arial, sans-serif" font-size="34" font-weight="700">CodeX-to-QQ</text>
  <circle cx="1148" cy="81" r="18" fill="#3B82F6"/>
  <circle cx="1196" cy="81" r="18" fill="#10B981"/>

  <rect x="92" y="162" width="324" height="566" rx="24" fill="#F8FAFC"/>
  <text x="126" y="214" fill="#0F172A" font-family="Arial, sans-serif" font-size="24" font-weight="700">会话概览</text>
  <rect x="124" y="242" width="260" height="96" rx="18" fill="#E0E7FF"/>
  <text x="148" y="281" fill="#3730A3" font-family="Arial, sans-serif" font-size="20" font-weight="700">当前会话</text>
  <text x="148" y="312" fill="#4338CA" font-family="Arial, sans-serif" font-size="16">session: qq-c2c-20260309</text>
  <rect x="124" y="360" width="260" height="132" rx="18" fill="#ECFDF5"/>
  <text x="148" y="400" fill="#065F46" font-family="Arial, sans-serif" font-size="20" font-weight="700">处理能力</text>
  <text x="148" y="433" fill="#047857" font-family="Arial, sans-serif" font-size="16">• 进展回报</text>
  <text x="148" y="461" fill="#047857" font-family="Arial, sans-serif" font-size="16">• 附件下载 / OCR / 文本抽取</text>
  <text x="148" y="489" fill="#047857" font-family="Arial, sans-serif" font-size="16">• 旧会话恢复与上下文压缩</text>
  <rect x="124" y="518" width="260" height="168" rx="18" fill="#FFF7ED"/>
  <text x="148" y="558" fill="#9A3412" font-family="Arial, sans-serif" font-size="20" font-weight="700">快捷操作</text>
  <text x="148" y="592" fill="#C2410C" font-family="Arial, sans-serif" font-size="16">/status   /progress</text>
  <text x="148" y="620" fill="#C2410C" font-family="Arial, sans-serif" font-size="16">/new      /sessions</text>
  <text x="148" y="648" fill="#C2410C" font-family="Arial, sans-serif" font-size="16">/diag     /stop</text>

  <rect x="458" y="162" width="724" height="566" rx="28" fill="#F8FAFC"/>
  <text x="502" y="216" fill="#0F172A" font-family="Arial, sans-serif" font-size="26" font-weight="700">QQ 对话体验</text>

  <rect x="522" y="268" width="594" height="96" rx="24" fill="#DBEAFE"/>
  <text x="556" y="311" fill="#1D4ED8" font-family="Arial, sans-serif" font-size="22" font-weight="700">你好啊，汇报你的状态</text>
  <text x="556" y="340" fill="#2563EB" font-family="Arial, sans-serif" font-size="16">用户发起询问</text>

  <rect x="496" y="404" width="530" height="208" rx="24" fill="white" stroke="#E2E8F0" stroke-width="2"/>
  <text x="528" y="448" fill="#0F172A" font-family="Arial, sans-serif" font-size="24" font-weight="700">🛰️ 进展更新</text>
  <text x="528" y="489" fill="#334155" font-family="Arial, sans-serif" font-size="18">阶段：生成回复</text>
  <text x="528" y="521" fill="#334155" font-family="Arial, sans-serif" font-size="18">已运行：18s</text>
  <text x="528" y="553" fill="#334155" font-family="Arial, sans-serif" font-size="18">最近进展：模型已生成回复内容</text>
  <text x="528" y="585" fill="#334155" font-family="Arial, sans-serif" font-size="18">快捷：/progress /status /new /stop</text>

  <rect x="1044" y="432" width="104" height="40" rx="14" fill="#2563EB"/>
  <text x="1067" y="458" fill="white" font-family="Arial, sans-serif" font-size="16" font-weight="700">状态</text>
  <rect x="1044" y="486" width="104" height="40" rx="14" fill="#10B981"/>
  <text x="1067" y="512" fill="white" font-family="Arial, sans-serif" font-size="16" font-weight="700">进展</text>
  <rect x="1044" y="540" width="104" height="40" rx="14" fill="#EF4444"/>
  <text x="1067" y="566" fill="white" font-family="Arial, sans-serif" font-size="16" font-weight="700">停止</text>

  <rect x="710" y="650" width="358" height="46" rx="23" fill="#111827"/>
  <text x="746" y="680" fill="white" font-family="Arial, sans-serif" font-size="18" font-weight="700">快捷按钮 + 多命令速查 + 进展反馈</text>
</svg>
