<svg width="1280" height="640" viewBox="0 0 1280 640" fill="none" xmlns="http://www.w3.org/2000/svg">
  <rect width="1280" height="640" rx="40" fill="#0B1120"/>
  <rect x="48" y="48" width="1184" height="544" rx="32" fill="url(#paint0_linear_1_2)"/>
  <rect x="84" y="96" width="120" height="120" rx="32" fill="#0F172A"/>
  <rect x="102" y="114" width="54" height="42" rx="14" fill="#2563EB"/>
  <path d="M120 156H148L134 174V162H120C115.582 162 112 158.418 112 154V146H120V156Z" fill="#2563EB"/>
  <circle cx="170" cy="136" r="16" fill="#10B981"/>
  <rect x="148" y="164" width="38" height="38" rx="12" fill="#111827" stroke="#E5E7EB" stroke-width="4"/>
  <circle cx="161" cy="178" r="4" fill="#E5E7EB"/>
  <circle cx="173" cy="178" r="4" fill="#E5E7EB"/>
  <path d="M158 191C161 188.333 164.333 187 168 187C171.667 187 175 188.333 178 191" stroke="#E5E7EB" stroke-width="4" stroke-linecap="round"/>

  <text x="232" y="150" fill="white" font-family="Arial, sans-serif" font-size="54" font-weight="700">CodeX-to-QQ</text>
  <text x="232" y="198" fill="#BFDBFE" font-family="Arial, sans-serif" font-size="24">Self-hosted QQ bridge for Codex CLI</text>

  <rect x="86" y="260" width="498" height="238" rx="28" fill="rgba(255,255,255,0.88)"/>
  <text x="120" y="314" fill="#0F172A" font-family="Arial, sans-serif" font-size="32" font-weight="700">What it gives you</text>
  <text x="120" y="364" fill="#334155" font-family="Arial, sans-serif" font-size="24">• Persistent QQ ⇄ Codex sessions</text>
  <text x="120" y="404" fill="#334155" font-family="Arial, sans-serif" font-size="24">• Progress updates, stop, diagnostics</text>
  <text x="120" y="444" fill="#334155" font-family="Arial, sans-serif" font-size="24">• Attachments, image input, extraction</text>

  <rect x="642" y="132" width="520" height="354" rx="30" fill="#F8FAFC"/>
  <text x="680" y="190" fill="#0F172A" font-family="Arial, sans-serif" font-size="28" font-weight="700">QQ Chat UX</text>
  <rect x="682" y="224" width="430" height="72" rx="22" fill="#DBEAFE"/>
  <text x="712" y="269" fill="#1D4ED8" font-family="Arial, sans-serif" font-size="26" font-weight="700">🛰️ 进展更新</text>
  <text x="712" y="318" fill="#334155" font-family="Arial, sans-serif" font-size="22">阶段：生成回复</text>
  <text x="712" y="354" fill="#334155" font-family="Arial, sans-serif" font-size="22">已运行：18s</text>
  <text x="712" y="390" fill="#334155" font-family="Arial, sans-serif" font-size="22">快捷：/progress /status /new /stop</text>
  <rect x="1022" y="316" width="104" height="40" rx="14" fill="#2563EB"/>
  <text x="1048" y="342" fill="white" font-family="Arial, sans-serif" font-size="16" font-weight="700">状态</text>
  <rect x="1022" y="366" width="104" height="40" rx="14" fill="#10B981"/>
  <text x="1048" y="392" fill="white" font-family="Arial, sans-serif" font-size="16" font-weight="700">进展</text>
  <rect x="1022" y="416" width="104" height="40" rx="14" fill="#EF4444"/>
  <text x="1048" y="442" fill="white" font-family="Arial, sans-serif" font-size="16" font-weight="700">停止</text>

  <text x="86" y="552" fill="#E2E8F0" font-family="Arial, sans-serif" font-size="22">QQ C2C / Group @bot • Sessions • Progress • Attachments • Diagnostics • Self-hosted</text>

  <defs>
    <linearGradient id="paint0_linear_1_2" x1="48" y1="48" x2="1232" y2="592" gradientUnits="userSpaceOnUse">
      <stop stop-color="#1D4ED8"/>
      <stop offset="1" stop-color="#0F766E"/>
    </linearGradient>
  </defs>
</svg>
